<svg width="25" height="24" viewBox="0 0 25 24" fill="none" xmlns="http://www.w3.org/2000/svg">
<path d="M4.47545 0C1.99625 0 0 1.88728 0 4.23114V18.9413C0 21.2852 1.99625 23.1724 4.47545 23.1724H12.9086V14.1135H10.3748V10.8519H12.9086V8.06546C12.9086 5.87625 14.4056 3.86618 17.8543 3.86618C19.2506 3.86618 20.2831 3.99291 20.2831 3.99291L20.2019 7.03864C20.2019 7.03864 19.1489 7.02924 17.9998 7.02924C16.7562 7.02924 16.5568 7.57096 16.5568 8.47028V10.852H20.3007L20.1376 14.1135H16.5568V23.1725H20.0349C22.5141 23.1725 24.5104 21.2852 24.5104 18.9413V4.23117C24.5104 1.8873 22.5141 2.31724e-05 20.0349 2.31724e-05H4.47542L4.47545 0Z" fill="#3F8CFF"/>
</svg>
