<svg width="25" height="24" viewBox="0 0 25 24" fill="none" xmlns="http://www.w3.org/2000/svg">
<path fill-rule="evenodd" clip-rule="evenodd" d="M2.15369 2.03613C3.53265 0.732422 5.40295 0 7.35312 0H17.1573C19.1074 0 20.9777 0.732422 22.3567 2.03613C23.7357 3.33984 24.5104 5.10803 24.5104 6.95172V16.2207C24.5104 18.0644 23.7357 19.8326 22.3567 21.1363C20.9777 22.44 19.1074 23.1724 17.1573 23.1724H7.35312C5.40295 23.1724 3.53265 22.44 2.15369 21.1363C0.774689 19.8326 0 18.0644 0 16.2207V6.95172C0 5.10803 0.774689 3.33984 2.15369 2.03613ZM8.21118 7.76294C7.13864 8.77692 6.5361 10.1522 6.5361 11.5862C6.5361 13.0202 7.13864 14.3954 8.21118 15.4095C9.28372 16.4235 10.7384 16.9931 12.2552 16.9931C13.772 16.9931 15.2267 16.4235 16.2992 15.4095C17.3717 14.3954 17.9743 13.0202 17.9743 11.5862C17.9743 10.1522 17.3717 8.77692 16.2992 7.76294C15.2267 6.74896 13.772 6.17932 12.2552 6.17932C10.7384 6.17932 9.28372 6.74896 8.21118 7.76294ZM19.6083 6.17932H17.9743V4.63446H19.6083V6.17932ZM12.0851 15.7241C14.3412 15.7241 16.1701 13.9951 16.1701 11.8621C16.1701 9.72913 14.3412 8 12.0851 8C9.82895 8 8 9.72913 8 11.8621C8 13.9951 9.82895 15.7241 12.0851 15.7241Z" fill="#3F8CFF"/>
</svg>
